{
.appVersion = "3151";
.formatVersion = 3;
DisplayStrings = (
"
H/H.001 H/H.002 A/A.004/A.003 


MAM/M.004 B/B.002 
MAMBOC
MN/N.001 O"
);
date = "2023-11-07 14:50:43 +0000";
familyName = "New Font";
fontMaster = (
{
id = m01;
metricValues = (
{
over = 10;
pos = 800;
},
{
over = 10;
pos = 900;
},
{
over = 10;
pos = 700;
},
{
over = -10;
},
{
over = -10;
pos = -200;
},
{
over = -16;
}
);
name = Regular;
userData = {
GSCornerRadius = 80;
};
}
);
glyphs = (
{
glyphname = A;
lastChange = "2023-11-28 15:32:08 +0000";
layers = (
{
layerId = m01;
shapes = (
{
closed = 1;
nodes = (
(651,726,ls),
(645,775,o),
(615,800,o),
(566,800,cs),
(181,800,ls),
(132,800,o),
(102,775,o),
(96,726,cs),
(11,85,ls),
(4,31,o),
(32,0,o),
(86,0,cs),
(270,0,ls),
(321,0,o),
(350,29,o),
(350,83,cs),
(354,428,o),
(354,706,o),
(373,706,cs),
(392,706,o),
(402,428,o),
(406,83,cs),
(406,29,o),
(435,0,o),
(486,0,cs),
(661,0,ls),
(715,0,o),
(743,31,o),
(736,85,cs)
);
},
{
closed = 1;
nodes = (
(302,401,l),
(440,401,l),
(440,427,l),
(302,427,l)
);
}
);
width = 771;
}
);
unicode = 65;
},
{
glyphname = B;
lastChange = "2023-11-28 15:36:02 +0000";
layers = (
{
layerId = m01;
shapes = (
{
closed = 1;
nodes = (
(365,606,o),
(293,668,o),
(203,743,c),
(305,721,o),
(414,617,o),
(430,560,c),
(431,557,l),
(432,553,o),
(429,550,o),
(426,553,c)
);
},
{
closed = 1;
nodes = (
(394,36,o),
(384,39,o),
(382,46,cs),
(220,704,l),
(321,553,o),
(414,213,o),
(395,43,cs)
);
},
{
closed = 1;
nodes = (
(694,70,o),
(710,159,o),
(691,236,cs),
(679,284,o),
(653,324,o),
(623,364,cs),
(612,378,o),
(557,453,o),
(540,450,c),
(634,464,o),
(686,529,o),
(684,639,c),
(681,731,o),
(623,798,o),
(540,798,c),
(146,798,l),
(94,798,o),
(66,770,o),
(66,718,c),
(66,78,l),
(66,26,o),
(94,-2,o),
(146,-2,c),
(517,0,l),
(553,0,o),
(581,7,o),
(621,29,cs)
);
}
);
width = 759;
}
);
unicode = 66;
},
{
glyphname = M;
lastChange = "2023-11-28 15:32:51 +0000";
layers = (
{
layerId = m01;
shapes = (
{
closed = 1;
nodes = (
(40,31,ls),
(40,14,o),
(54,0,o),
(71,0,cs),
(312,0,ls),
(335,0,o),
(351,18,o),
(345,41,cs),
(171,735,l),
(278,604,o),
(315,14,o),
(456,0,c),
(597,14,o),
(634,604,o),
(741,735,c),
(567,41,ls),
(561,18,o),
(577,0,o),
(600,0,cs),
(841,0,ls),
(858,0,o),
(872,14,o),
(872,31,cs),
(872,800,l),
(757,800,l),
(757,799,l),
(753,799,ls),
(575,799,o),
(519,617,o),
(456,487,c),
(393,617,o),
(337,799,o),
(159,799,cs),
(155,799,l),
(155,800,l),
(40,800,l)
);
}
);
width = 932;
}
);
unicode = 77;
},
{
glyphname = N;
lastChange = "2023-11-28 15:10:30 +0000";
layers = (
{
layerId = m01;
shapes = (
{
closed = 1;
nodes = (
(40,31,ls),
(40,14,o),
(54,0,o),
(71,0,cs),
(312,0,ls),
(335,0,o),
(351,18,o),
(345,41,cs),
(171,735,l),
(228,656,o),
(253,483,o),
(306,321,cs),
(354,174,o),
(438,0,o),
(616,-1,cs),
(735,-2,l),
(735,767,ls),
(735,784,o),
(721,798,o),
(704,798,cs),
(463,798,ls),
(440,798,o),
(424,780,o),
(430,757,cs),
(604,62,l),
(538,177,o),
(510,354,o),
(462,495,cs),
(419,622,o),
(381,677,o),
(329,734,cs),
(293,773,o),
(228,798,o),
(159,799,cs),
(40,800,l)
);
}
);
width = 761;
}
);
unicode = 78;
},
{
glyphname = O;
lastChange = "2023-11-28 15:27:29 +0000";
layers = (
{
layerId = m01;
shapes = (
{
closed = 1;
nodes = (
(384,72,o),
(374,219,o),
(374,400,c),
(374,581,o),
(384,728,o),
(396,728,c),
(409,728,o),
(419,581,o),
(419,400,c),
(419,219,o),
(409,72,o),
(396,72,c)
);
},
{
closed = 1;
nodes = (
(200,810,o),
(0,626,o),
(0,400,c),
(0,173,o),
(200,-10,o),
(397,-10,c),
(594,-10,o),
(793,173,o),
(793,400,c),
(793,626,o),
(594,810,o),
(397,810,c)
);
}
);
width = 793;
}
);
unicode = 79;
},
{
glyphname = V;
lastChange = "2023-11-28 13:38:15 +0000";
layers = (
{
layerId = m01;
shapes = (
{
closed = 1;
nodes = (
(530,518,o),
(100,301,o),
(349,54,c),
(451,800,l),
(694,800,l),
(508,0,l),
(190,0,l),
(3,800,l),
(247,800,l)
);
}
);
width = 676;
}
);
unicode = 86;
},
{
glyphname = W;
lastChange = "2023-11-28 13:36:23 +0000";
layers = (
{
layerId = m01;
shapes = (
{
closed = 1;
nodes = (
(587,183,o),
(531,0,o),
(353,0,c),
(218,0,l),
(40,800,l),
(237,800,l),
(530,800,o),
(345,462,o),
(345,43,c),
(523,103,o),
(505,799,o),
(648,799,c),
(792,799,o),
(775,103,o),
(945,41,c),
(945,444,o),
(767,800,o),
(1053,800,c),
(1250,800,l),
(1072,0,l),
(931,0,l),
(757,0,o),
(707,186,o),
(646,320,c)
);
}
);
width = 1290;
}
);
unicode = 87;
},
{
glyphname = A.003;
lastChange = "2023-11-07 20:10:29 +0000";
layers = (
{
layerId = m01;
shapes = (
{
closed = 1;
nodes = (
(400,0,l),
(711,0,ls),
(721,0,o),
(729,8,o),
(727,19,cs),
(622,688,ls),
(621,696,o),
(614,700,o),
(606,700,cs),
(290,700,l)
);
},
{
closed = 1;
nodes = (
(272,290,l),
(367,290,l),
(367,328,l),
(272,328,l)
);
},
{
closed = 1;
nodes = (
(256,0,ls),
(274,0,o),
(288,12,o),
(287,29,cs),
(281,88,o),
(258,100,o),
(258,176,cs),
(258,265,o),
(288,265,o),
(288,351,cs),
(288,438,o),
(258,438,o),
(258,524,cs),
(258,602,o),
(281,612,o),
(287,671,cs),
(288,688,o),
(274,700,o),
(256,700,cs),
(230,700,l),
(50,0,l)
);
},
{
closed = 1;
nodes = (
(230,678,l),
(362,678,l),
(362,700,l),
(230,700,l)
);
}
);
width = 777;
}
);
},
{
glyphname = A.004;
layers = (
{
layerId = m01;
shapes = (
{
closed = 1;
nodes = (
(212,290,l),
(307,290,l),
(307,328,l),
(212,328,l)
);
},
{
closed = 1;
nodes = (
(206,0,cs),
(224,0,o),
(238,12,o),
(237,29,cs),
(231,88,o),
(198,100,o),
(198,176,cs),
(198,265,o),
(268,265,o),
(268,351,cs),
(268,438,o),
(178,438,o),
(178,524,cs),
(178,602,o),
(221,592,o),
(227,651,cs),
(228,668,o),
(214,700,o),
(196,700,cs),
(170,700,l),
(61,278,ls),
(22,128,o),
(89,0,o)
);
},
{
closed = 1;
nodes = (
(196,610,l),
(308,610,l),
(308,700,l),
(196,700,l)
);
},
{
closed = 1;
nodes = (
(433,-5,ls),
(569,-5,o),
(661,100,o),
(644,232,cs),
(605,531,ls),
(592,632,o),
(513,700,o),
(411,700,cs),
(289,700,ls),
(269,700,o),
(255,685,o),
(258,664,cs),
(342,21,ls),
(344,5,o),
(356,-5,o),
(371,-5,cs)
);
}
);
width = 696;
}
);
},
{
glyphname = B.001;
layers = (
{
layerId = m01;
shapes = (
{
closed = 1;
nodes = (
(46,767,l),
(46,113,ls),
(46,39,o),
(86,-1,o),
(160,-1,cs),
(208,-1,ls),
(283,-1,o),
(328,41,o),
(319,117,cs),
(305,234,o),
(269,345,o),
(214,446,c)
);
},
{
closed = 1;
nodes = (
(427,450,l),
(529,461,o),
(595,526,o),
(593,641,cs),
(590,733,o),
(522,800,o),
(439,800,c),
(46,800,l),
(46,749,l),
(221,744,o),
(367,773,o),
(394,587,c),
(397,552,o),
(380,522,o),
(361,506,c)
);
},
{
closed = 1;
nodes = (
(46,749,l),
(177,566,o),
(570,88,o),
(274,33,c),
(383,-6,o),
(460,-11,o),
(539,6,c),
(672,35,o),
(725,162,o),
(654,255,c),
(628,291,o),
(557,339,o),
(46,767,c)
);
}
);
width = 685;
}
);
},
{
glyphname = B.002;
lastChange = "2023-11-28 14:42:07 +0000";
layers = (
{
layerId = m01;
shapes = (
{
closed = 1;
nodes = (
(120,800,ls),
(68,800,o),
(40,772,o),
(40,720,cs),
(40,80,ls),
(40,28,o),
(68,0,o),
(120,0,cs),
(572,2,ls),
(708,3,o),
(757,162,o),
(687,255,cs),
(668,280,o),
(675,301,o),
(514,452,c),
(608,466,o),
(660,531,o),
(658,641,cs),
(655,733,o),
(597,800,o),
(514,800,cs)
);
},
{
closed = 1;
nodes = (
(284,748,o),
(386,746,o),
(409,587,cs),
(410,573,o),
(410,560,o),
(408,548,c),
(346,602,o),
(271,667,o),
(177,745,c),
(176,748,l)
);
},
{
closed = 1;
nodes = (
(295,555,o),
(430,209,o),
(369,45,cs),
(367,38,o),
(358,41,o),
(356,48,cs),
(194,706,l)
);
}
);
width = 759;
}
);
},
{
glyphname = E.001;
lastChange = "2023-11-08 10:19:57 +0000";
layers = (
{
layerId = m01;
shapes = (
{
closed = 1;
nodes = (
(49,677,l),
(263,683,l),
(263,699,l),
(49,699,l)
);
},
{
closed = 1;
nodes = (
(49,492,ls),
(49,472,o),
(58,456,o),
(73,450,cs),
(275,364,l),
(311,375,ls),
(376,395,o),
(383,491,o),
(321,521,cs),
(49,654,l)
);
},
{
closed = 1;
nodes = (
(49,310,l),
(277,365,l),
(255,377,l),
(48,330,l)
);
},
{
closed = 1;
nodes = (
(190,701,ls),
(89,701,o),
(-10,664,o),
(90,640,cs),
(135,629,o),
(147,691,o),
(205,673,cs),
(268,652,o),
(255,579,o),
(322,558,cs),
(384,537,o),
(397,593,o),
(462,571,cs),
(520,553,o),
(523,525,o),
(565,506,cs),
(578,501,o),
(589,509,o),
(592,523,cs),
(612,615,o),
(529,703,o),
(410,702,cs)
);
},
{
closed = 1;
nodes = (
(49,583,l),
(77,583,l),
(77,683,l),
(49,683,l)
);
},
{
closed = 1;
nodes = (
(49,207,ls),
(49,100,o),
(117,22,o),
(209,22,cs),
(437,22,ls),
(530,22,o),
(597,100,o),
(597,207,cs),
(597,305,l),
(49,310,l)
);
}
);
width = 600;
}
);
},
{
glyphname = H.001;
layers = (
{
layerId = m01;
shapes = (
{
closed = 1;
nodes = (
(50,31,ls),
(50,14,o),
(64,0,o),
(81,0,cs),
(190,0,l),
(190,800,l),
(81,800,ls),
(64,800,o),
(50,786,o),
(50,769,cs)
);
},
{
closed = 1;
nodes = (
(210,0,ls),
(228,0,o),
(242,14,o),
(241,33,cs),
(235,101,o),
(212,114,o),
(212,201,cs),
(212,303,o),
(242,303,o),
(242,401,cs),
(242,500,o),
(212,500,o),
(212,599,cs),
(212,688,o),
(235,699,o),
(241,767,cs),
(242,786,o),
(228,800,o),
(210,800,cs),
(184,800,l),
(184,0,l)
);
},
{
closed = 1;
nodes = (
(356,800,l),
(356,0,l),
(675,0,l),
(675,800,l)
);
},
{
closed = 1;
nodes = (
(362,800,l),
(304,800,l),
(304,701,o),
(334,701,o),
(334,599,cs),
(334,500,o),
(304,500,o),
(304,401,cs),
(304,303,o),
(334,303,o),
(334,201,cs),
(334,102,o),
(304,99,o),
(304,0,c),
(362,0,l)
);
},
{
closed = 1;
nodes = (
(236,360,l),
(331,360,l),
(331,398,l),
(236,398,l)
);
}
);
width = 725;
}
);
},
{
glyphname = H.002;
lastChange = "2023-11-07 17:24:46 +0000";
layers = (
{
layerId = m01;
shapes = (
{
closed = 1;
nodes = (
(210,0,ls),
(228,0,o),
(242,12,o),
(241,29,cs),
(235,88,o),
(212,100,o),
(212,176,cs),
(212,265,o),
(242,265,o),
(242,351,cs),
(242,438,o),
(212,438,o),
(212,524,cs),
(212,602,o),
(235,612,o),
(241,671,cs),
(242,688,o),
(228,700,o),
(210,700,cs),
(184,700,l),
(184,0,l)
);
},
{
closed = 1;
nodes = (
(332,700,l),
(306,700,ls),
(288,700,o),
(274,688,o),
(275,671,cs),
(281,612,o),
(304,602,o),
(304,524,cs),
(304,438,o),
(274,438,o),
(274,351,cs),
(274,265,o),
(304,265,o),
(304,176,cs),
(304,100,o),
(281,88,o),
(275,29,cs),
(274,12,o),
(288,0,o),
(306,0,cs),
(332,0,l)
);
},
{
closed = 1;
nodes = (
(236,315,l),
(331,315,l),
(331,348,l),
(236,348,l)
);
},
{
closed = 1;
nodes = (
(332,0,l),
(447,0,ls),
(565,0,o),
(651,86,o),
(651,204,cs),
(651,496,ls),
(651,614,o),
(565,700,o),
(447,700,cs),
(332,700,l)
);
},
{
closed = 1;
nodes = (
(44,204,ls),
(44,86,o),
(103,0,o),
(184,0,c),
(184,700,l),
(103,700,o),
(44,614,o),
(44,496,cs)
);
}
);
width = 725;
}
);
},
{
glyphname = H.005;
lastChange = "2023-11-08 08:01:29 +0000";
layers = (
{
layerId = m01;
shapes = (
{
closed = 1;
nodes = (
(88,0,l),
(173,0,l),
(173,800,l),
(88,800,l)
);
},
{
closed = 1;
nodes = (
(408,0,l),
(764,0,l),
(764,800,l),
(408,800,l)
);
}
);
width = 746;
}
);
},
{
glyphname = M.001;
lastChange = "2023-11-28 14:24:49 +0000";
layers = (
{
layerId = m01;
shapes = (
{
closed = 1;
nodes = (
(32,0,l),
(365,0,l),
(185,703,l),
(309,350,l),
(456,0,l),
(606,351,l),
(730,703,l),
(550,0,l),
(883,0,l),
(883,800,l),
(602,800,l),
(458,484,l),
(313,800,l),
(32,800,l)
);
}
);
width = 932;
}
);
},
{
glyphname = M.002;
lastChange = "2023-11-28 14:29:41 +0000";
layers = (
{
layerId = m01;
shapes = (
{
closed = 1;
nodes = (
(40,0,l),
(355,0,l),
(155,800,l),
(40,800,l)
);
},
{
closed = 1;
nodes = (
(100,735,l),
(159,735,l),
(159,799,l),
(100,799,l)
);
},
{
closed = 1;
nodes = (
(159,745,l),
(318,636,o),
(311,14,o),
(456,0,c),
(456,487,l),
(393,617,o),
(337,793,o),
(159,799,c)
);
},
{
closed = 1;
nodes = (
(757,800,l),
(557,0,l),
(872,0,l),
(872,800,l)
);
},
{
closed = 1;
nodes = (
(753,799,l),
(753,735,l),
(812,735,l),
(812,799,l)
);
},
{
closed = 1;
nodes = (
(575,793,o),
(519,617,o),
(456,487,c),
(456,0,l),
(601,14,o),
(594,636,o),
(753,745,c),
(753,799,l)
);
}
);
width = 932;
}
);
},
{
glyphname = M.004;
layers = (
{
layerId = m01;
shapes = (
{
closed = 1;
nodes = (
(40,31,ls),
(40,14,o),
(54,0,o),
(71,0,cs),
(312,0,ls),
(335,0,o),
(351,18,o),
(345,41,cs),
(155,800,l),
(40,800,l)
);
},
{
closed = 1;
nodes = (
(100,735,l),
(159,735,l),
(159,799,l),
(100,799,l)
);
},
{
closed = 1;
nodes = (
(159,745,l),
(318,636,o),
(311,14,o),
(456,0,c),
(456,487,l),
(393,617,o),
(337,793,o),
(159,799,c)
);
},
{
closed = 1;
nodes = (
(757,800,l),
(567,41,ls),
(561,18,o),
(577,0,o),
(600,0,cs),
(841,0,ls),
(858,0,o),
(872,14,o),
(872,31,cs),
(872,800,l)
);
},
{
closed = 1;
nodes = (
(753,799,l),
(753,735,l),
(812,735,l),
(812,799,l)
);
},
{
closed = 1;
nodes = (
(575,793,o),
(519,617,o),
(456,487,c),
(456,0,l),
(601,14,o),
(594,636,o),
(753,745,c),
(753,799,l)
);
}
);
width = 932;
}
);
},
{
glyphname = N.001;
lastChange = "2023-11-28 15:05:49 +0000";
layers = (
{
layerId = m01;
shapes = (
{
closed = 1;
nodes = (
(40,31,ls),
(40,14,o),
(54,0,o),
(71,0,cs),
(312,0,ls),
(335,0,o),
(351,18,o),
(345,41,cs),
(155,800,l),
(40,800,l)
);
},
{
closed = 1;
nodes = (
(100,735,l),
(159,735,l),
(159,799,l),
(100,799,l)
);
},
{
closed = 1;
nodes = (
(456,145,l),
(456,487,l),
(393,617,o),
(337,793,o),
(159,799,c),
(159,745,l),
(241,689,o),
(279,497,o),
(316,321,c)
);
},
{
closed = 1;
nodes = (
(735,767,ls),
(735,784,o),
(721,798,o),
(704,798,cs),
(463,798,ls),
(440,798,o),
(424,780,o),
(430,757,cs),
(620,-2,l),
(735,-2,l)
);
},
{
closed = 1;
nodes = (
(675,63,l),
(616,63,l),
(616,-1,l),
(675,-1,l)
);
},
{
closed = 1;
nodes = (
(319,734,l),
(319,311,l),
(382,181,o),
(438,5,o),
(616,-1,c),
(616,53,l),
(517,121,o),
(493,326,o),
(446,521,c)
);
}
);
width = 761;
}
);
},
{
glyphname = a;
lastChange = "2023-11-27 15:22:52 +0000";
layers = (
{
layerId = m01;
shapes = (
{
closed = 1;
nodes = (
(406,325,o),
(405,327,c),
(377,309,o),
(347,290,o),
(322,271,cs),
(288,244,o),
(266,209,o),
(259,166,cs),
(253,133,o),
(251,101,o),
(267,71,c),
(278,49,o),
(295,44,o),
(311,53,c),
(307,71,o),
(301,89,o),
(299,109,c),
(291,163,o),
(317,206,o),
(348,246,c),
(369,272,o)
);
},
{
closed = 1;
nodes = (
(251,-32,o),
(136,-15,o),
(79,28,c),
(-35,119,o),
(59,281,o),
(207,321,c),
(265,337,o),
(420,315,o),
(396,380,c),
(360,392,o),
(320,398,o),
(187,360,c),
(131,340,l),
(106,332,o),
(81,332,o),
(63,357,c),
(33,399,o),
(64,455,o),
(101,478,c),
(190,530,o),
(379,547,o),
(485,422,c),
(663,209,o),
(660,-118,o),
(319,43,c)
);
}
);
width = 600;
}
);
unicode = 97;
},
{
glyphname = e;
lastChange = "2023-11-08 10:18:18 +0000";
layers = (
{
layerId = m01;
shapes = (
{
closed = 1;
nodes = (
(309,183,o),
(312,185,o),
(316,186,c),
(314,205,o),
(312,225,o),
(310,244,c),
(302,329,o),
(319,403,o),
(394,456,c),
(396,457,o),
(399,459,o),
(401,462,c),
(404,466,o),
(406,472,o),
(408,477,c),
(402,478,o),
(394,483,o),
(389,481,c),
(375,476,o),
(361,469,o),
(349,460,c),
(265,395,o),
(261,277,o),
(285,208,c),
(288,198,o),
(298,190,o),
(305,182,c)
);
},
{
closed = 1;
nodes = (
(390,86,o),
(467,83,o),
(550,119,c),
(551,116,o),
(553,114,o),
(554,111,c),
(545,99,o),
(537,86,o),
(526,76,c),
(483,35,o),
(430,17,o),
(373,8,c),
(292,-6,o),
(214,2,o),
(144,51,c),
(62,109,o),
(26,216,o),
(51,321,c),
(74,418,o),
(153,490,o),
(252,505,c),
(331,517,o),
(407,507,o),
(474,459,c),
(546,407,o),
(576,312,o),
(547,234,c),
(515,149,o),
(416,110,o),
(334,149,c),
(331,150,o),
(328,151,o),
(324,152,c)
);
}
);
width = 600;
}
);
unicode = 101;
},
